<svg width="30" height="30" viewBox="0 0 30 30" fill="none" xmlns="http://www.w3.org/2000/svg">
<circle cx="15" cy="15" r="15" fill="#70CD61"/>
<path d="M23 9.5625C23 9.41332 22.9407 9.27024 22.8352 9.16475C22.7298 9.05926 22.5867 9 22.4375 9H5.5625C5.41331 9 5.27024 9.05926 5.16475 9.16475C5.05926 9.27024 5 9.41332 5 9.5625C5 9.71168 5.05926 9.85476 5.16475 9.96025C5.27024 10.0657 5.41331 10.125 5.5625 10.125H22.4375C22.5867 10.125 22.7298 10.0657 22.8352 9.96025C22.9407 9.85476 23 9.71168 23 9.5625ZM5.5625 14.2354H22.4375C22.5867 14.2354 22.7298 14.2947 22.8352 14.4002C22.9407 14.5057 23 14.6487 23 14.7979C23 14.9471 22.9407 15.0902 22.8352 15.1957C22.7298 15.3012 22.5867 15.3604 22.4375 15.3604H5.5625C5.41331 15.3604 5.27024 15.3012 5.16475 15.1957C5.05926 15.0902 5 14.9471 5 14.7979C5 14.6487 5.05926 14.5057 5.16475 14.4002C5.27024 14.2947 5.41331 14.2354 5.5625 14.2354ZM14 19.4709H22.4375C22.5867 19.4709 22.7298 19.5301 22.8352 19.6356C22.9407 19.7411 23 19.8842 23 20.0334C23 20.1826 22.9407 20.3256 22.8352 20.4311C22.7298 20.5366 22.5867 20.5959 22.4375 20.5959H14C13.8508 20.5959 13.7077 20.5366 13.6023 20.4311C13.4968 20.3256 13.4375 20.1826 13.4375 20.0334C13.4375 19.8842 13.4968 19.7411 13.6023 19.6356C13.7077 19.5301 13.8508 19.4709 14 19.4709Z" fill="#F3F3F3"/>
</svg>
