<svg width="48" height="39" viewBox="0 0 48 39" fill="none" xmlns="http://www.w3.org/2000/svg">
<g id="Group 79">
<g id="Group 78">
<g id="Group">
<g id="Group_2">
<path id="Vector" d="M26.6611 25.2993C25.1225 24.2242 23.0039 24.5977 21.9258 26.1342C20.8488 27.6724 21.2226 29.7925 22.7608 30.8695C24.299 31.9466 26.419 31.5728 27.4961 30.0346C28.5731 28.4964 28.1993 26.3763 26.6611 25.2993ZM23.4108 29.9411C22.3854 29.2231 22.1362 27.8097 22.8542 26.7843C23.5722 25.7588 24.9856 25.5096 26.011 26.2277C27.0365 26.9457 27.2857 28.3591 26.5677 29.3845C25.8497 30.41 24.4363 30.6592 23.4108 29.9411Z" fill="#CCCCCC"/>
</g>
</g>
<g id="Group 76">
<g id="Group_3">
<g id="Group_4">
<path id="Vector_2" d="M37.0625 10.4453C36.2934 9.90677 35.2334 10.0937 34.6948 10.8628C34.1563 11.6319 34.3432 12.6919 35.1123 13.2304C35.8814 13.7689 36.9414 13.582 37.48 12.8129C38.0185 12.0438 37.8316 10.9838 37.0625 10.4453ZM35.7624 12.302C35.506 12.1225 35.4437 11.7692 35.6232 11.5128C35.8027 11.2565 36.1561 11.1942 36.4124 11.3737C36.6688 11.5532 36.7311 11.9065 36.5516 12.1629C36.3721 12.4192 36.0187 12.4815 35.7624 12.302Z" fill="#CCCCCC"/>
</g>
</g>
<g id="Group_5">
<g id="Group_6">
<path id="Vector_3" d="M47.4614 9.42577L34.4642 0.325026C34.2078 0.14553 33.8545 0.207839 33.675 0.464186L24.8993 12.9972C24.7198 13.2536 24.7821 13.6069 25.0384 13.7864L27.1082 15.2357C27.311 15.3777 27.5823 15.3717 27.7786 15.2209C28.854 14.3987 30.2124 14.0385 31.554 14.2195L24.9225 22.4257C21.7951 22.3077 19.1642 24.7474 19.0462 27.8748C18.9283 31.0022 21.368 33.633 24.4953 33.751C27.6227 33.869 30.2536 31.4293 30.3716 28.3019C30.4019 27.4977 30.2606 26.6963 29.957 25.9509L35.4002 16.9127C36.0292 18.1113 36.1552 19.5111 35.7505 20.8029C35.6759 21.0388 35.7631 21.2959 35.9658 21.4379L38.0356 22.8872C38.292 23.0667 38.6453 23.0044 38.8248 22.748L47.6006 10.215C47.7801 9.95864 47.7177 9.60527 47.4614 9.42577ZM28.4249 30.6849C26.9906 32.737 24.1643 33.2379 22.1122 31.8036C20.0601 30.3693 19.5592 27.543 20.9935 25.4909C21.9269 24.1554 23.5053 23.4235 25.1278 23.5739C25.3164 23.5909 25.501 23.5126 25.6199 23.3651L32.7544 14.5364C32.8419 14.5714 32.932 14.6019 33.0175 14.6417C33.079 14.6695 33.1411 14.6964 33.2009 14.7266C33.6237 14.9421 34.0143 15.2156 34.3614 15.5391C34.4102 15.585 34.4567 15.6342 34.5038 15.6825C34.5705 15.7492 34.63 15.8234 34.6925 15.8941L28.8367 25.6175C28.7387 25.7796 28.7283 25.9799 28.8088 26.1514C29.5005 27.6225 29.3541 29.351 28.4249 30.6849ZM38.2215 21.6338L36.9445 20.7396C37.3877 18.9115 36.9825 16.9808 35.8414 15.4853C33.8477 12.8709 30.1661 12.2546 27.4296 14.0772L26.1527 13.1831L31.6781 5.29191L43.7469 13.7426L38.2215 21.6338ZM44.397 12.8142L32.3282 4.36354L32.9782 3.43517L45.0471 11.8859L44.397 12.8142ZM45.6971 10.9575L33.6283 2.5068L34.2783 1.57843L46.3472 10.0291L45.6971 10.9575Z" fill="#CCCCCC"/>
</g>
</g>
<g id="Group_7">
<g id="Group_8">
<path id="Vector_4" d="M24.0609 29.0127C24.5736 29.3717 25.2803 29.2471 25.6393 28.7343C25.9983 28.2216 25.8737 27.5149 25.361 27.1559C24.8483 26.7969 24.1416 26.9215 23.7826 27.4342C23.4235 27.947 23.5482 28.6536 24.0609 29.0127Z" fill="#CCCCCC"/>
</g>
</g>
</g>
</g>
<g id="Group 77">
<g id="Group_9">
<g id="Group_10">
<path id="Vector_5" d="M22.5377 25.6368C21.101 26.8447 20.9135 28.9878 22.1186 30.4268C23.3256 31.8653 25.4701 32.0529 26.9086 30.8459C28.3471 29.6389 28.5347 27.4943 27.3277 26.0559C26.1207 24.6174 23.9761 24.4298 22.5377 25.6368ZM26.1801 29.9777C25.2212 30.7824 23.7914 30.6573 22.9868 29.6983C22.1821 28.7394 22.3072 27.3096 23.2661 26.505C24.2251 25.7003 25.6548 25.8254 26.4595 26.7844C27.2642 27.7433 27.1391 29.173 26.1801 29.9777Z" fill="#2D2D2D"/>
</g>
</g>
<g id="Group 76_2">
<g id="Group_11">
<g id="Group_12">
<path id="Vector_6" d="M10.8819 11.7454C10.1626 12.3489 10.0688 13.4212 10.6723 14.1404C11.2758 14.8596 12.3481 14.9535 13.0673 14.3499C13.7866 13.7464 13.8804 12.6742 13.2769 11.9549C12.6734 11.2357 11.6011 11.1419 10.8819 11.7454ZM12.3389 13.4818C12.0991 13.6829 11.7417 13.6516 11.5405 13.4119C11.3394 13.1722 11.3706 12.8147 11.6104 12.6136C11.8501 12.4124 12.2075 12.4437 12.4087 12.6834C12.6099 12.9232 12.5786 13.2806 12.3389 13.4818Z" fill="#2D2D2D"/>
</g>
</g>
<g id="Group_13">
<g id="Group_14">
<path id="Vector_7" d="M12.5887 1.43686L0.434091 11.6358C0.194364 11.8369 0.163091 12.1944 0.364246 12.4341L10.1989 24.1546C10.4001 24.3943 10.7575 24.4256 10.9972 24.2244L12.9328 22.6002C13.1224 22.4412 13.1869 22.1775 13.092 21.9489C12.5762 20.6973 12.5798 19.2919 13.1019 18.0429L19.3121 26.5724C18.3888 29.5627 20.0644 32.7354 23.0547 33.6587C26.045 34.5821 29.2176 32.9065 30.141 29.9162C31.0644 26.9259 29.3887 23.7533 26.3984 22.8299C25.6295 22.5924 24.8188 22.5215 24.0203 22.6218L16.6988 15.0248C18.0194 14.7275 19.4041 14.9681 20.5471 15.6933C20.7557 15.8265 21.0266 15.8088 21.2162 15.6497L23.1518 14.0255C23.3915 13.8244 23.4228 13.4669 23.2217 13.2272L13.387 1.5067C13.1858 1.26697 12.8284 1.2357 12.5887 1.43686ZM28.1964 25.3269C29.8074 27.2435 29.5597 30.1032 27.6432 31.7141C25.7266 33.3251 22.8669 33.0774 21.256 31.1608C20.2075 29.9136 19.9091 28.1995 20.4744 26.6713C20.5396 26.4935 20.5117 26.2949 20.4 26.1419L13.7187 16.9654C13.7751 16.8899 13.8279 16.8109 13.8885 16.7386C13.9313 16.6864 13.9734 16.6334 14.0179 16.5834C14.3355 16.2308 14.7008 15.9243 15.1032 15.6728C15.1602 15.6375 15.2197 15.6053 15.2785 15.5723C15.3602 15.5251 15.4473 15.4869 15.5318 15.4448L23.4083 23.6177C23.5395 23.7543 23.7303 23.8162 23.9167 23.7828C25.5168 23.4955 27.1485 24.0842 28.1964 25.3269ZM21.9892 13.5216L20.795 14.5236C19.1439 13.6223 17.1741 13.5141 15.4342 14.2292C12.3929 15.4784 10.8448 18.875 11.897 21.9899L10.7028 22.992L4.51065 15.6124L15.797 6.14202L21.9892 13.5216ZM15.0685 5.27384L3.78215 14.7442L3.05366 13.8761L14.3401 4.40565L15.0685 5.27384ZM13.6116 3.53747L2.32517 13.0079L1.59668 12.1397L12.8831 2.66929L13.6116 3.53747Z" fill="#2D2D2D"/>
</g>
</g>
<g id="Group_15">
<g id="Group_16">
<path id="Vector_8" d="M25.4521 29.1092C25.9316 28.7069 25.9941 27.992 25.5918 27.5125C25.1895 27.033 24.4746 26.9705 23.9951 27.3728C23.5157 27.7752 23.4531 28.49 23.8554 28.9695C24.2578 29.449 24.9726 29.5115 25.4521 29.1092Z" fill="#2D2D2D"/>
</g>
</g>
</g>
</g>
</g>
</svg>
