<svg width="32" height="32" viewBox="0 0 32 32" fill="none" xmlns="http://www.w3.org/2000/svg">
<path id="klipartz 1 (Traced)" fill-rule="evenodd" clip-rule="evenodd" d="M14.8268 0.043155C13.8549 0.118064 11.5292 0.538284 11.4064 0.661129C11.3842 0.683357 11.8816 1.18608 12.5517 1.81869C13.6412 2.84735 13.7465 2.93491 13.8655 2.9111C15.8068 2.52287 17.8921 2.64079 19.8869 3.25171C21.3148 3.68897 22.8236 4.46214 24.0356 5.37767C24.415 5.66433 25.2865 6.41234 25.4398 6.58307L25.5259 6.6789H23.4406H21.3553V8.01171V9.34453H25.3537H29.3522V5.34609V1.34764H28.0194H26.6866V2.68046C26.6866 3.4135 26.6747 4.01327 26.6601 4.01327C26.6456 4.01327 26.4982 3.89454 26.3326 3.74946C25.7567 3.24489 24.7462 2.53407 23.9983 2.10744C22.2886 1.132 20.3273 0.45574 18.396 0.175759C17.1949 0.0016343 15.9607 -0.0442234 14.8268 0.043155ZM1.34049 3.99068V5.3235H2.71848C3.47638 5.3235 4.09648 5.34066 4.09648 5.36167C4.09648 5.38268 4.05365 5.43857 4.00128 5.48592C3.94892 5.53327 3.72871 5.79563 3.51193 6.06897C0.708054 9.60445 -0.466765 13.8822 0.167971 18.245C0.253316 18.8316 0.464805 20.0414 0.508539 20.1933C0.523539 20.2453 0.858414 19.9371 1.66154 19.1322C2.72598 18.0653 2.7919 17.9897 2.76859 17.8616C2.7549 17.7867 2.71938 17.4138 2.68961 17.033C2.62419 16.1961 2.68875 14.7833 2.83243 13.9077C3.18763 11.743 4.04208 9.75201 5.38081 7.96965C5.73737 7.4949 6.42872 6.68699 6.59634 6.54914C6.66655 6.49136 6.67174 6.63038 6.67174 8.57095V10.6548H8.00456H9.33737V6.65631V2.65787H5.33893H1.34049V3.99068ZM30.2566 12.9608L29.2103 14.1375L29.2613 14.4631C29.3914 15.2938 29.3606 16.8626 29.1921 17.9886C28.8016 20.5985 27.6144 23.0598 25.7724 25.0785C25.574 25.296 25.3936 25.4738 25.3714 25.4738C25.3484 25.4738 25.3311 24.5922 25.3311 23.4181V21.3624H23.9983H22.6655V25.3609V29.3593H26.664H30.6624V28.0265V26.6937H29.3296C28.5965 26.6937 27.9968 26.6837 27.9968 26.6714C27.9968 26.6592 28.155 26.461 28.3483 26.2309C31.2746 22.7488 32.5799 17.8806 31.7679 13.4785C31.6653 12.9226 31.3762 11.7843 31.3375 11.7843C31.3186 11.7843 30.8322 12.3137 30.2566 12.9608ZM2.65071 26.6711V30.6696H3.98353H5.31634V29.2699V27.8702L5.85755 28.3139C8.35349 30.3602 11.0215 31.5137 14.1942 31.9183C14.9625 32.0162 17.0113 32.0292 17.7183 31.9405C18.5441 31.8369 19.8192 31.556 19.8192 31.4776C19.8192 31.458 19.269 30.9785 18.5965 30.4119L17.374 29.3819L16.1681 29.3531C14.4902 29.313 13.3763 29.1515 12.116 28.7655C10.6881 28.3282 9.17929 27.5551 7.96729 26.6395C7.58786 26.3529 6.71643 25.6049 6.56309 25.4341L6.47702 25.3383H8.56231H10.6476V24.0055V22.6727H6.64915H2.65071V26.6711Z" fill="#CCCCCC"/>
</svg>
