<svg width="32" height="32" viewBox="0 0 32 32" fill="none" xmlns="http://www.w3.org/2000/svg">
<path d="M1.36006 22.3236L2.55537 25.511C2.64369 25.7466 2.89306 25.8796 3.13825 25.8221L5.40825 25.287C5.60094 25.5196 5.808 25.7412 6.0275 25.9498L5.33969 28.1783C5.2655 28.4188 5.3815 28.6769 5.61056 28.781L8.70956 30.1896C8.93856 30.2936 9.20937 30.2114 9.34169 29.9974L10.5684 28.0138C10.8698 28.0421 11.1732 28.0524 11.475 28.0446L12.5645 30.1068C12.6533 30.2749 12.826 30.3734 13.0067 30.3733C13.0652 30.3733 13.1246 30.363 13.1821 30.3415L16.3695 29.1461C16.6051 29.0578 16.7383 28.8081 16.6806 28.5633L16.1455 26.2932C16.3782 26.1005 16.5997 25.8935 16.8082 25.674L19.0368 26.3618C19.2775 26.4361 19.5354 26.32 19.6395 26.0909L21.0481 22.992C21.1523 22.7629 21.0699 22.4921 20.8559 22.3598L18.8723 21.133C18.9006 20.8315 18.9109 20.5284 18.9031 20.2265L20.9653 19.137C21.1878 19.0195 21.2882 18.755 21.1999 18.5194L20.0046 15.332C19.9163 15.0964 19.6666 14.9632 19.4217 15.0209L17.1517 15.5561C16.9589 15.3233 16.7519 15.1017 16.5324 14.8933L17.2203 12.6648C17.2944 12.4243 17.1784 12.1662 16.9494 12.0621L13.8504 10.6535C13.6214 10.5493 13.3507 10.6317 13.2183 10.8457L11.9915 12.8293C11.6902 12.801 11.3872 12.7908 11.0849 12.7985L9.99544 10.7363C9.87787 10.5138 9.61331 10.4133 9.37781 10.5017L6.19044 11.697C5.95481 11.7854 5.82162 12.035 5.87931 12.2799L6.41444 14.55C6.18175 14.7426 5.96019 14.9497 5.75169 15.1693L3.52312 14.4815C3.28225 14.407 3.02456 14.5233 2.92044 14.7523L1.51187 17.8513C1.40781 18.0804 1.49006 18.3511 1.70406 18.4835L3.68762 19.7102C3.65931 20.0115 3.64906 20.3147 3.65681 20.6167L1.59462 21.7062C1.37212 21.8235 1.27169 22.088 1.36006 22.3236ZM4.40487 21.3523C4.57987 21.2598 4.68381 21.0729 4.67006 20.8755C4.63869 20.425 4.65419 19.9689 4.716 19.52C4.74306 19.324 4.652 19.1306 4.48369 19.0265L2.60431 17.8641L3.64869 15.5665L5.76019 16.2181C5.94919 16.2765 6.15481 16.218 6.28481 16.0687C6.58244 15.7268 6.91587 15.4153 7.27575 15.1428C7.4335 15.0233 7.506 14.8221 7.46056 14.6295L6.95356 12.4785L9.31681 11.5923L10.3491 13.5462C10.4416 13.7211 10.6284 13.8255 10.8259 13.8115C11.2764 13.7802 11.7326 13.7956 12.1814 13.8574C12.3777 13.8843 12.5708 13.7933 12.6749 13.6251L13.8373 11.7457L16.135 12.7901L15.4833 14.9016C15.425 15.0906 15.4836 15.2963 15.6328 15.4261C15.9744 15.7235 16.2859 16.057 16.5587 16.4172C16.6782 16.575 16.8793 16.6475 17.0721 16.602L19.2229 16.095L20.1092 18.4581L18.1552 19.4905C17.9802 19.5829 17.8762 19.7699 17.89 19.9673C17.9214 20.4173 17.9059 20.8733 17.8441 21.3228C17.8171 21.5187 17.9081 21.7121 18.0764 21.8162L19.9557 22.9786L18.9114 25.2763L16.7999 24.6246C16.6108 24.5662 16.4052 24.6248 16.2752 24.774C15.9776 25.1159 15.6442 25.4274 15.2843 25.6999C15.1266 25.8194 15.0541 26.0206 15.0995 26.2133L15.6065 28.3642L13.2432 29.2505L12.2109 27.2965C12.1239 27.1318 11.9533 27.0301 11.769 27.0301C11.7574 27.0301 11.7458 27.0305 11.7341 27.0313C11.2835 27.0626 10.8276 27.0472 10.3786 26.9854C10.1822 26.9584 9.98919 27.0495 9.88512 27.2177L8.72275 29.0971L6.42506 28.0527L7.07675 25.9412C7.13506 25.7523 7.0765 25.5466 6.92731 25.4167C6.58519 25.1188 6.27375 24.7854 6.0015 24.4257C5.88206 24.268 5.68087 24.1955 5.48806 24.2408L3.33712 24.7479L2.45087 22.3846L4.40487 21.3523ZM9.45737 24.4311C10.0391 24.6955 10.6575 24.8283 11.2779 24.8283C11.7999 24.8283 12.3232 24.7342 12.8265 24.5455C13.9281 24.1324 14.8029 23.315 15.2897 22.244C15.7766 21.1729 15.8171 19.9764 15.4041 18.8748C14.9909 17.7732 14.1736 16.8984 13.1026 16.4116C12.0316 15.9247 10.835 15.8841 9.73344 16.2972C8.63181 16.7103 7.75706 17.5277 7.27025 18.5987C6.78344 19.6697 6.74287 20.8663 7.15594 21.9678C7.569 23.0694 8.38631 23.9443 9.45737 24.4311ZM8.18062 19.0126C8.55694 18.1847 9.23306 17.553 10.0846 17.2336C10.4737 17.0876 10.878 17.015 11.2816 17.015C11.7609 17.015 12.2392 17.1176 12.6887 17.322C13.5166 17.6983 14.1484 18.3745 14.4677 19.226C14.7871 20.0775 14.7557 21.0023 14.3794 21.8301C14.0031 22.658 13.3269 23.2898 12.4754 23.6091C11.6239 23.9285 10.6989 23.897 9.87119 23.5208C9.04331 23.1445 8.41156 22.4683 8.09219 21.6168C7.77287 20.7653 7.80425 19.8405 8.18062 19.0126ZM17.1044 10.2956L18.6001 10.487C18.6515 10.6273 18.7087 10.7655 18.7715 10.9008L17.8492 12.0937C17.6953 12.2928 17.7133 12.5751 17.8913 12.7531L19.5463 14.4082C19.7244 14.5861 20.0066 14.6041 20.2057 14.4502L21.3986 13.528C21.534 13.5908 21.6721 13.648 21.8124 13.6993L22.0038 15.195C22.0358 15.4445 22.2482 15.6315 22.4998 15.6315H24.8406C25.0921 15.6315 25.3046 15.4445 25.3366 15.195L25.5279 13.6993C25.6682 13.648 25.8064 13.5907 25.9417 13.5279L27.1347 14.4501C27.3337 14.6041 27.6161 14.586 27.7941 14.4081L29.4491 12.753C29.6271 12.5751 29.6451 12.2927 29.4912 12.0936L28.5689 10.9008C28.6317 10.7654 28.6889 10.6273 28.7403 10.487L30.236 10.2955C30.4856 10.2636 30.6725 10.0511 30.6725 9.79958V7.45889C30.6725 7.20733 30.4856 6.99489 30.236 6.96295L28.7403 6.77152C28.6889 6.63114 28.6317 6.49302 28.5689 6.3577L29.4912 5.16483C29.6451 4.96577 29.6271 4.68339 29.4491 4.50545L27.7941 2.85033C27.6161 2.67239 27.3337 2.65439 27.1347 2.80833L25.9417 3.73058C25.8064 3.66783 25.6682 3.61058 25.5279 3.55914L25.3366 2.06352C25.3046 1.81395 25.0922 1.62695 24.8406 1.62695H22.4998C22.2483 1.62695 22.0358 1.81395 22.0038 2.06352L21.8124 3.55914C21.6722 3.61052 21.534 3.66777 21.3986 3.73058L20.2057 2.80833C20.0066 2.65439 19.7242 2.67245 19.5463 2.85033L17.8913 4.50545C17.7133 4.68339 17.6953 4.96577 17.8492 5.16483L18.7715 6.3577C18.7087 6.49308 18.6515 6.63114 18.6001 6.77152L17.1044 6.96295C16.8549 6.99489 16.6679 7.20733 16.6679 7.45889V9.79958C16.6679 10.0512 16.8549 10.2636 17.1044 10.2956ZM17.6679 7.89902L19.0387 7.72358C19.2349 7.69852 19.3979 7.56008 19.4544 7.37058C19.5404 7.08202 19.6564 6.80214 19.7991 6.5387C19.8933 6.36464 19.8759 6.15139 19.7549 5.99483L18.9096 4.90139L19.9423 3.86864L21.0357 4.71395C21.1924 4.83508 21.4056 4.85227 21.5795 4.75814C21.8433 4.61539 22.1231 4.49945 22.4114 4.41352C22.6009 4.35702 22.7394 4.19402 22.7645 3.99783L22.9399 2.62702H24.4004L24.5759 3.99783C24.601 4.19408 24.7394 4.35702 24.929 4.41352C25.2172 4.49945 25.4971 4.61539 25.7609 4.75814C25.9349 4.85227 26.1481 4.83502 26.3046 4.71395L27.3981 3.86864L28.4308 4.90139L27.5854 5.99483C27.4644 6.15139 27.4471 6.36464 27.5413 6.5387C27.6839 6.80208 27.7999 7.08202 27.886 7.37064C27.9425 7.56014 28.1055 7.69858 28.3016 7.72364L29.6725 7.89908V9.35958L28.3016 9.53502C28.1054 9.56008 27.9425 9.69852 27.886 9.88802C27.7999 10.1766 27.684 10.4565 27.5413 10.7199C27.4471 10.894 27.4644 11.1072 27.5854 11.2638L28.4308 12.3572L27.3981 13.39L26.3046 12.5446C26.1481 12.4236 25.9349 12.4063 25.7608 12.5005C25.4972 12.6432 25.2174 12.7591 24.929 12.8451C24.7394 12.9016 24.601 13.0646 24.5759 13.2608L24.4004 14.6316H22.9399L22.7645 13.2608C22.7394 13.0645 22.6009 12.9016 22.4114 12.8451C22.123 12.7591 21.8431 12.6431 21.5796 12.5005C21.4056 12.4063 21.1924 12.4236 21.0357 12.5446L19.9423 13.39L18.9096 12.3572L19.7549 11.2638C19.876 11.1072 19.8933 10.894 19.7991 10.7199C19.6564 10.4565 19.5404 10.1766 19.4544 9.88802C19.3979 9.69845 19.2349 9.56008 19.0387 9.53502L17.6679 9.35958V7.89902ZM23.6702 11.5703C25.2918 11.5703 26.6112 10.251 26.6112 8.62933C26.6112 7.00764 25.2919 5.68833 23.6702 5.68833C22.0485 5.68833 20.7291 7.00764 20.7291 8.62933C20.7291 10.251 22.0485 11.5703 23.6702 11.5703ZM23.6702 6.68833C24.7404 6.68833 25.6112 7.55908 25.6112 8.62933C25.6112 9.69964 24.7404 10.5703 23.6702 10.5703C22.5999 10.5703 21.7291 9.69958 21.7291 8.62933C21.7291 7.55902 22.5999 6.68833 23.6702 6.68833Z" fill="#CCCCCC"/>
<path d="M1.36006 22.3236L2.55537 25.511C2.64369 25.7466 2.89306 25.8796 3.13825 25.8221L5.40825 25.287C5.60094 25.5196 5.808 25.7412 6.0275 25.9497L5.33969 28.1783C5.2655 28.4187 5.3815 28.6769 5.61056 28.7809L8.70956 30.1896C8.93856 30.2936 9.20937 30.2114 9.34169 29.9974L10.5684 28.0138C10.8698 28.0421 11.1732 28.0524 11.475 28.0446L12.5645 30.1068C12.6533 30.2749 12.826 30.3734 13.0067 30.3733C13.0652 30.3733 13.1246 30.363 13.1821 30.3414L16.3695 29.1461C16.6051 29.0577 16.7383 28.8081 16.6806 28.5632L16.1455 26.2932C16.3782 26.1005 16.5997 25.8934 16.8082 25.6739L19.0368 26.3617C19.2775 26.4361 19.5354 26.32 19.6395 26.0909L21.0481 22.9919C21.1523 22.7629 21.0699 22.4921 20.8559 22.3598L18.8723 21.133C18.9006 20.8315 18.9109 20.5284 18.9031 20.2265L20.9653 19.137C21.1878 19.0195 21.2882 18.7549 21.1999 18.5194L20.0046 15.332C19.9163 15.0964 19.6666 14.9632 19.4217 15.0209L17.1517 15.5561C16.9589 15.3233 16.7519 15.1017 16.5324 14.8933L17.2203 12.6647C17.2944 12.4243 17.1784 12.1662 16.9494 12.0621L13.8504 10.6535C13.6214 10.5493 13.3507 10.6317 13.2183 10.8457L11.9915 12.8292C11.6902 12.8009 11.3872 12.7907 11.0849 12.7985L9.99544 10.7363C9.87787 10.5138 9.61331 10.4132 9.37781 10.5017L6.19044 11.697C5.95481 11.7854 5.82162 12.035 5.87931 12.2799L6.41444 14.5499C6.18175 14.7426 5.96019 14.9497 5.75169 15.1692L3.52312 14.4814C3.28225 14.407 3.02456 14.5232 2.92044 14.7523L1.51187 17.8513C1.40781 18.0804 1.49006 18.3511 1.70406 18.4834L3.68762 19.7102C3.65931 20.0115 3.64906 20.3147 3.65681 20.6167L1.59462 21.7062C1.37212 21.8235 1.27169 22.088 1.36006 22.3236ZM4.40487 21.3522C4.57987 21.2598 4.68381 21.0729 4.67006 20.8754C4.63869 20.4249 4.65419 19.9689 4.716 19.52C4.74306 19.324 4.652 19.1306 4.48369 19.0265L2.60431 17.8641L3.64869 15.5664L5.76019 16.2181C5.94919 16.2765 6.15481 16.2179 6.28481 16.0687C6.58244 15.7268 6.91587 15.4153 7.27575 15.1428C7.4335 15.0233 7.506 14.8221 7.46056 14.6294L6.95356 12.4785L9.31681 11.5922L10.3491 13.5462C10.4416 13.7211 10.6284 13.8255 10.8259 13.8114C11.2764 13.7802 11.7326 13.7956 12.1814 13.8574C12.3777 13.8843 12.5708 13.7933 12.6749 13.6251L13.8373 11.7457L16.135 12.7901L15.4833 14.9016C15.425 15.0906 15.4836 15.2962 15.6328 15.4261C15.9744 15.7235 16.2859 16.057 16.5587 16.4172C16.6782 16.5749 16.8793 16.6474 17.0721 16.602L19.2229 16.0949L20.1092 18.4581L18.1552 19.4904C17.9802 19.5829 17.8762 19.7699 17.89 19.9673C17.9214 20.4172 17.9059 20.8733 17.8441 21.3227C17.8171 21.5187 17.9081 21.7121 18.0764 21.8162L19.9557 22.9786L18.9114 25.2762L16.7999 24.6246C16.6108 24.5662 16.4052 24.6247 16.2752 24.774C15.9776 25.1159 15.6442 25.4274 15.2843 25.6999C15.1266 25.8194 15.0541 26.0206 15.0995 26.2132L15.6065 28.3642L13.2432 29.2504L12.2109 27.2965C12.1239 27.1318 11.9533 27.0301 11.769 27.0301C11.7574 27.0301 11.7458 27.0304 11.7341 27.0313C11.2835 27.0626 10.8276 27.0472 10.3786 26.9854C10.1822 26.9584 9.98919 27.0495 9.88512 27.2177L8.72275 29.0971L6.42506 28.0527L7.07675 25.9412C7.13506 25.7522 7.0765 25.5466 6.92731 25.4167C6.58519 25.1188 6.27375 24.7854 6.0015 24.4257C5.88206 24.2679 5.68087 24.1955 5.48806 24.2408L3.33712 24.7479L2.45087 22.3846L4.40487 21.3522ZM9.45737 24.4311C10.0391 24.6955 10.6575 24.8282 11.2779 24.8282C11.7999 24.8282 12.3232 24.7342 12.8265 24.5454C13.9281 24.1324 14.8029 23.315 15.2897 22.2439C15.7766 21.1729 15.8171 19.9764 15.4041 18.8747C14.9909 17.7732 14.1736 16.8984 13.1026 16.4116C12.0316 15.9247 10.835 15.8841 9.73344 16.2972C8.63181 16.7103 7.75706 17.5277 7.27025 18.5987C6.78344 19.6697 6.74287 20.8662 7.15594 21.9678C7.569 23.0694 8.38631 23.9443 9.45737 24.4311ZM8.18062 19.0126C8.55694 18.1847 9.23306 17.5529 10.0846 17.2336C10.4737 17.0876 10.878 17.0149 11.2816 17.0149C11.7609 17.0149 12.2392 17.1176 12.6887 17.3219C13.5166 17.6982 14.1484 18.3744 14.4677 19.2259C14.7871 20.0774 14.7557 21.0023 14.3794 21.8301C14.0031 22.658 13.3269 23.2898 12.4754 23.6091C11.6239 23.9284 10.6989 23.897 9.87119 23.5207C9.04331 23.1444 8.41156 22.4683 8.09219 21.6168C7.77287 20.7653 7.80425 19.8404 8.18062 19.0126Z" fill="#F3F3F3"/>
</svg>
