<svg width="100" height="40" viewBox="0 0 100 40" fill="none" xmlns="http://www.w3.org/2000/svg">
<rect x="0.5" y="0.5" width="99" height="39" rx="3.5" stroke="#2D2D2D"/>
<path d="M51.8818 27H49.8076V18.7295C49.8076 18.4541 49.8105 18.1787 49.8164 17.9033C49.8223 17.6279 49.8281 17.3584 49.834 17.0947C49.8457 16.8311 49.8604 16.5791 49.8779 16.3389C49.7549 16.4736 49.6025 16.6201 49.4209 16.7783C49.2451 16.9365 49.0576 17.1006 48.8584 17.2705L47.3818 18.4482L46.3447 17.1387L50.1592 14.1504H51.8818V27Z" fill="#2D2D2D"/>
<path d="M84.915 19.8721H88.4307V21.4365H84.915V24.9873H83.3506V21.4365H79.8438V19.8721H83.3506V16.2861H84.915V19.8721Z" fill="#2D2D2D"/>
<path d="M10.6328 23.0449V21.2959H15.168V23.0449H10.6328Z" fill="#2D2D2D"/>
</svg>
